<svg xmlns="http://www.w3.org/2000/svg" version="1.1" xmlns:xlink="http://www.w3.org/1999/xlink" xmlns:svgjs="http://svgjs.dev/svgjs" width="1700" height="350" preserveAspectRatio="none" viewBox="0 0 1700 350"><g mask="url(&quot;#SvgjsMask1084&quot;)" fill="none"><rect width="1700" height="350" x="0" y="0" fill="rgba(20, 30, 39, 1)"></rect><path d="M980.174,416.513C1011.016,416.11,1041.461,404.47,1057.506,378.127C1074.174,350.761,1073.31,316.686,1058.177,288.443C1042.107,258.451,1014.161,235.422,980.174,233.796C943.355,232.035,905.909,248.046,888.078,280.307C870.707,311.735,879.144,350.449,899.258,380.196C917.007,406.446,948.49,416.927,980.174,416.513" fill="rgba(28, 83, 142, 0.4)" class="triangle-float3"></path><path d="M292.6520536046837 239.1619799042449L226.75398282204222 191.28422896714835 244.77430266758716 305.06005068688637z" fill="rgba(28, 83, 142, 0.4)" class="triangle-float2"></path><path d="M513.644,514.539C554.152,516.105,591.584,491.768,610.93,456.144C629.463,422.017,624.151,381.012,604.273,347.651C584.907,315.148,551.472,293.583,513.644,292.868C474.532,292.128,435.586,309.752,416.877,344.107C398.828,377.251,409.932,416.276,428.566,449.095C447.5,482.443,475.325,513.058,513.644,514.539" fill="rgba(28, 83, 142, 0.4)" class="triangle-float1"></path><path d="M1121.2460582833412 267.15104978779584L1155.23940609097 360.82467722137307 1212.389058645465 295.0815224390247z" fill="rgba(28, 83, 142, 0.4)" class="triangle-float1"></path><path d="M1526.731,136.215C1557.761,135.73,1586.474,119.099,1601.453,91.919C1615.946,65.622,1613.319,33.435,1597.407,7.972C1582.422,-16.008,1554.991,-26.676,1526.731,-27.654C1496.274,-28.708,1463.587,-22.823,1447.037,2.767C1429.273,30.234,1431.075,66.238,1447.846,94.322C1464.207,121.719,1494.825,136.714,1526.731,136.215" fill="rgba(28, 83, 142, 0.4)" class="triangle-float1"></path><path d="M503.58571524278796 312.7702792409835L546.8725052860308 356.0570692842263 590.1592953292736 312.7702792409835 546.8725052860308 269.48348919774065z" fill="rgba(28, 83, 142, 0.4)" class="triangle-float3"></path><path d="M498.35834443124736 183.66010981443748L516.294744174987 124.99278974644797 419.3255642011329 127.4218501648331z" fill="rgba(28, 83, 142, 0.4)" class="triangle-float1"></path><path d="M702.3668044314745 236.84586780633757L715.2066987016929 317.91376970319624 796.2746005985516 305.07387543297784 783.4347063283332 224.00597353611917z" fill="rgba(28, 83, 142, 0.4)" class="triangle-float1"></path><path d="M243.238,205.774C273.073,205.727,300.188,189.022,315.053,163.154C329.864,137.379,328.445,106.728,315.54,79.948C300.375,48.478,278.128,15.849,243.238,14.121C206.264,12.29,173.491,38.792,157.37,72.116C143.013,101.795,153.213,135.641,171.033,163.379C187.202,188.547,213.324,205.821,243.238,205.774" fill="rgba(28, 83, 142, 0.4)" class="triangle-float1"></path><path d="M1573.705,325.945C1603.487,326.414,1627.88,305.65,1643.44,280.251C1659.881,253.415,1669.978,220.725,1655.186,192.946C1639.664,163.796,1606.73,149.27,1573.705,149.291C1540.718,149.312,1507.448,163.694,1492.401,193.049C1478.317,220.526,1491.559,251.776,1507.672,278.114C1522.874,302.963,1544.579,325.486,1573.705,325.945" fill="rgba(28, 83, 142, 0.4)" class="triangle-float1"></path><path d="M35.091,91.114C54.26,89.488,68.041,74.944,77.867,58.405C87.982,41.38,96.893,20.893,87.006,3.735C77.11,-13.439,54.911,-15.64,35.091,-15.834C14.795,-16.033,-7.03,-13.965,-18.613,2.702C-31.727,21.571,-34.345,47.269,-22.415,66.909C-10.843,85.96,12.881,92.998,35.091,91.114" fill="rgba(28, 83, 142, 0.4)" class="triangle-float3"></path></g><defs><mask id="SvgjsMask1084"><rect width="1700" height="350" fill="#ffffff"></rect></mask><style>
                @keyframes float1 {
                    0%{transform: translate(0, 0)}
                    50%{transform: translate(-10px, 0)}
                    100%{transform: translate(0, 0)}
                }

                .triangle-float1 {
                    animation: float1 5s infinite;
                }

                @keyframes float2 {
                    0%{transform: translate(0, 0)}
                    50%{transform: translate(-5px, -5px)}
                    100%{transform: translate(0, 0)}
                }

                .triangle-float2 {
                    animation: float2 4s infinite;
                }

                @keyframes float3 {
                    0%{transform: translate(0, 0)}
                    50%{transform: translate(0, -10px)}
                    100%{transform: translate(0, 0)}
                }

                .triangle-float3 {
                    animation: float3 6s infinite;
                }
            </style></defs></svg>